<?xml version="1.0" encoding="utf-8" standalone="no"?>
<!DOCTYPE svg PUBLIC "-//W3C//DTD SVG 1.1//EN"
  "http://www.w3.org/Graphics/SVG/1.1/DTD/svg11.dtd">
<svg xmlns:xlink="http://www.w3.org/1999/xlink" width="192.928221pt" height="177.724158pt" viewBox="0 0 192.928221 177.724158" xmlns="http://www.w3.org/2000/svg" version="1.1">
 <metadata>
  <rdf:RDF xmlns:dc="http://purl.org/dc/elements/1.1/" xmlns:cc="http://creativecommons.org/ns#" xmlns:rdf="http://www.w3.org/1999/02/22-rdf-syntax-ns#">
   <cc:Work>
    <dc:type rdf:resource="http://purl.org/dc/dcmitype/StillImage"/>
    <dc:date>2024-03-11T13:09:26.036141</dc:date>
    <dc:format>image/svg+xml</dc:format>
    <dc:creator>
     <cc:Agent>
      <dc:title>Matplotlib v3.8.0, https://matplotlib.org/</dc:title>
     </cc:Agent>
    </dc:creator>
   </cc:Work>
  </rdf:RDF>
 </metadata>
 <defs>
  <style type="text/css">*{stroke-linejoin: round; stroke-linecap: butt}</style>
 </defs>
 <g id="figure_1">
  <g id="patch_1">
   <path d="M 0 177.724158 
L 192.928221 177.724158 
L 192.928221 0 
L 0 0 
z
" style="fill: #ffffff"/>
  </g>
  <g id="axes_1">
   <g id="patch_2">
    <path d="M 47.595938 145.332283 
L 189.328221 145.332283 
L 189.328221 3.6 
L 47.595938 3.6 
z
" style="fill: #ffffff"/>
   </g>
   <g id="matplotlib.axis_1">
    <g id="xtick_1">
     <g id="line2d_1">
      <path d="M 75.512902 145.332283 
L 75.512902 3.6 
" clip-path="url(#p465e86d6f0)" style="fill: none; stroke-dasharray: 1.85,0.8; stroke-dashoffset: 0; stroke: #000000; stroke-opacity: 0.5; stroke-width: 0.5"/>
     </g>
     <g id="line2d_2">
      <defs>
       <path id="meb0e2d2b7f" d="M 0 0 
L 0 -3 
" style="stroke: #000000; stroke-width: 0.5"/>
      </defs>
      <g>
       <use xlink:href="#meb0e2d2b7f" x="75.512902" y="145.332283" style="stroke: #000000; stroke-width: 0.5"/>
      </g>
     </g>
     <g id="line2d_3">
      <defs>
       <path id="m6382735d3e" d="M 0 0 
L 0 3 
" style="stroke: #000000; stroke-width: 0.5"/>
      </defs>
      <g>
       <use xlink:href="#m6382735d3e" x="75.512902" y="3.6" style="stroke: #000000; stroke-width: 0.5"/>
      </g>
     </g>
     <g id="text_1">
      <!-- $\mathdefault{10^{1}}$ -->
      <g transform="translate(65.832902 157.190565) scale(0.11 -0.11)">
       <defs>
        <path id="DejaVuSans-31" d="M 794 531 
L 1825 531 
L 1825 4091 
L 703 3866 
L 703 4441 
L 1819 4666 
L 2450 4666 
L 2450 531 
L 3481 531 
L 3481 0 
L 794 0 
L 794 531 
z
" transform="scale(0.015625)"/>
        <path id="DejaVuSans-30" d="M 2034 4250 
Q 1547 4250 1301 3770 
Q 1056 3291 1056 2328 
Q 1056 1369 1301 889 
Q 1547 409 2034 409 
Q 2525 409 2770 889 
Q 3016 1369 3016 2328 
Q 3016 3291 2770 3770 
Q 2525 4250 2034 4250 
z
M 2034 4750 
Q 2819 4750 3233 4129 
Q 3647 3509 3647 2328 
Q 3647 1150 3233 529 
Q 2819 -91 2034 -91 
Q 1250 -91 836 529 
Q 422 1150 422 2328 
Q 422 3509 836 4129 
Q 1250 4750 2034 4750 
z
" transform="scale(0.015625)"/>
       </defs>
       <use xlink:href="#DejaVuSans-31" transform="translate(0 0.684375)"/>
       <use xlink:href="#DejaVuSans-30" transform="translate(63.623047 0.684375)"/>
       <use xlink:href="#DejaVuSans-31" transform="translate(128.203125 38.965625) scale(0.7)"/>
      </g>
     </g>
    </g>
    <g id="xtick_2">
     <g id="line2d_4">
      <path d="M 118.462079 145.332283 
L 118.462079 3.6 
" clip-path="url(#p465e86d6f0)" style="fill: none; stroke-dasharray: 1.85,0.8; stroke-dashoffset: 0; stroke: #000000; stroke-opacity: 0.5; stroke-width: 0.5"/>
     </g>
     <g id="line2d_5">
      <g>
       <use xlink:href="#meb0e2d2b7f" x="118.462079" y="145.332283" style="stroke: #000000; stroke-width: 0.5"/>
      </g>
     </g>
     <g id="line2d_6">
      <g>
       <use xlink:href="#m6382735d3e" x="118.462079" y="3.6" style="stroke: #000000; stroke-width: 0.5"/>
      </g>
     </g>
     <g id="text_2">
      <!-- $\mathdefault{10^{3}}$ -->
      <g transform="translate(108.782079 157.190565) scale(0.11 -0.11)">
       <defs>
        <path id="DejaVuSans-33" d="M 2597 2516 
Q 3050 2419 3304 2112 
Q 3559 1806 3559 1356 
Q 3559 666 3084 287 
Q 2609 -91 1734 -91 
Q 1441 -91 1130 -33 
Q 819 25 488 141 
L 488 750 
Q 750 597 1062 519 
Q 1375 441 1716 441 
Q 2309 441 2620 675 
Q 2931 909 2931 1356 
Q 2931 1769 2642 2001 
Q 2353 2234 1838 2234 
L 1294 2234 
L 1294 2753 
L 1863 2753 
Q 2328 2753 2575 2939 
Q 2822 3125 2822 3475 
Q 2822 3834 2567 4026 
Q 2313 4219 1838 4219 
Q 1578 4219 1281 4162 
Q 984 4106 628 3988 
L 628 4550 
Q 988 4650 1302 4700 
Q 1616 4750 1894 4750 
Q 2613 4750 3031 4423 
Q 3450 4097 3450 3541 
Q 3450 3153 3228 2886 
Q 3006 2619 2597 2516 
z
" transform="scale(0.015625)"/>
       </defs>
       <use xlink:href="#DejaVuSans-31" transform="translate(0 0.765625)"/>
       <use xlink:href="#DejaVuSans-30" transform="translate(63.623047 0.765625)"/>
       <use xlink:href="#DejaVuSans-33" transform="translate(128.203125 39.046875) scale(0.7)"/>
      </g>
     </g>
    </g>
    <g id="xtick_3">
     <g id="line2d_7">
      <path d="M 161.411256 145.332283 
L 161.411256 3.6 
" clip-path="url(#p465e86d6f0)" style="fill: none; stroke-dasharray: 1.85,0.8; stroke-dashoffset: 0; stroke: #000000; stroke-opacity: 0.5; stroke-width: 0.5"/>
     </g>
     <g id="line2d_8">
      <g>
       <use xlink:href="#meb0e2d2b7f" x="161.411256" y="145.332283" style="stroke: #000000; stroke-width: 0.5"/>
      </g>
     </g>
     <g id="line2d_9">
      <g>
       <use xlink:href="#m6382735d3e" x="161.411256" y="3.6" style="stroke: #000000; stroke-width: 0.5"/>
      </g>
     </g>
     <g id="text_3">
      <!-- $\mathdefault{10^{5}}$ -->
      <g transform="translate(151.731256 157.190565) scale(0.11 -0.11)">
       <defs>
        <path id="DejaVuSans-35" d="M 691 4666 
L 3169 4666 
L 3169 4134 
L 1269 4134 
L 1269 2991 
Q 1406 3038 1543 3061 
Q 1681 3084 1819 3084 
Q 2600 3084 3056 2656 
Q 3513 2228 3513 1497 
Q 3513 744 3044 326 
Q 2575 -91 1722 -91 
Q 1428 -91 1123 -41 
Q 819 9 494 109 
L 494 744 
Q 775 591 1075 516 
Q 1375 441 1709 441 
Q 2250 441 2565 725 
Q 2881 1009 2881 1497 
Q 2881 1984 2565 2268 
Q 2250 2553 1709 2553 
Q 1456 2553 1204 2497 
Q 953 2441 691 2322 
L 691 4666 
z
" transform="scale(0.015625)"/>
       </defs>
       <use xlink:href="#DejaVuSans-31" transform="translate(0 0.684375)"/>
       <use xlink:href="#DejaVuSans-30" transform="translate(63.623047 0.684375)"/>
       <use xlink:href="#DejaVuSans-35" transform="translate(128.203125 38.965625) scale(0.7)"/>
      </g>
     </g>
    </g>
    <g id="text_4">
     <!-- n -->
     <g transform="translate(114.976454 171.836502) scale(0.11 -0.11)">
      <defs>
       <path id="DejaVuSans-6e" d="M 3513 2113 
L 3513 0 
L 2938 0 
L 2938 2094 
Q 2938 2591 2744 2837 
Q 2550 3084 2163 3084 
Q 1697 3084 1428 2787 
Q 1159 2491 1159 1978 
L 1159 0 
L 581 0 
L 581 3500 
L 1159 3500 
L 1159 2956 
Q 1366 3272 1645 3428 
Q 1925 3584 2291 3584 
Q 2894 3584 3203 3211 
Q 3513 2838 3513 2113 
z
" transform="scale(0.015625)"/>
      </defs>
      <use xlink:href="#DejaVuSans-6e"/>
     </g>
    </g>
   </g>
   <g id="matplotlib.axis_2">
    <g id="ytick_1">
     <g id="line2d_10">
      <path d="M 47.595938 118.199265 
L 189.328221 118.199265 
" clip-path="url(#p465e86d6f0)" style="fill: none; stroke-dasharray: 1.85,0.8; stroke-dashoffset: 0; stroke: #000000; stroke-opacity: 0.5; stroke-width: 0.5"/>
     </g>
     <g id="line2d_11">
      <defs>
       <path id="m1389d33c3c" d="M 0 0 
L 3 0 
" style="stroke: #000000; stroke-width: 0.5"/>
      </defs>
      <g>
       <use xlink:href="#m1389d33c3c" x="47.595938" y="118.199265" style="stroke: #000000; stroke-width: 0.5"/>
      </g>
     </g>
     <g id="line2d_12">
      <defs>
       <path id="m2c33fb5c5e" d="M 0 0 
L -3 0 
" style="stroke: #000000; stroke-width: 0.5"/>
      </defs>
      <g>
       <use xlink:href="#m2c33fb5c5e" x="189.328221" y="118.199265" style="stroke: #000000; stroke-width: 0.5"/>
      </g>
     </g>
     <g id="text_5">
      <!-- $\mathdefault{10^{-3}}$ -->
      <g transform="translate(18.245938 122.378406) scale(0.11 -0.11)">
       <defs>
        <path id="DejaVuSans-2212" d="M 678 2272 
L 4684 2272 
L 4684 1741 
L 678 1741 
L 678 2272 
z
" transform="scale(0.015625)"/>
       </defs>
       <use xlink:href="#DejaVuSans-31" transform="translate(0 0.765625)"/>
       <use xlink:href="#DejaVuSans-30" transform="translate(63.623047 0.765625)"/>
       <use xlink:href="#DejaVuSans-2212" transform="translate(128.203125 39.046875) scale(0.7)"/>
       <use xlink:href="#DejaVuSans-33" transform="translate(186.855469 39.046875) scale(0.7)"/>
      </g>
     </g>
    </g>
    <g id="ytick_2">
     <g id="line2d_13">
      <path d="M 47.595938 75.513539 
L 189.328221 75.513539 
" clip-path="url(#p465e86d6f0)" style="fill: none; stroke-dasharray: 1.85,0.8; stroke-dashoffset: 0; stroke: #000000; stroke-opacity: 0.5; stroke-width: 0.5"/>
     </g>
     <g id="line2d_14">
      <g>
       <use xlink:href="#m1389d33c3c" x="47.595938" y="75.513539" style="stroke: #000000; stroke-width: 0.5"/>
      </g>
     </g>
     <g id="line2d_15">
      <g>
       <use xlink:href="#m2c33fb5c5e" x="189.328221" y="75.513539" style="stroke: #000000; stroke-width: 0.5"/>
      </g>
     </g>
     <g id="text_6">
      <!-- $\mathdefault{10^{-1}}$ -->
      <g transform="translate(18.245938 79.69268) scale(0.11 -0.11)">
       <use xlink:href="#DejaVuSans-31" transform="translate(0 0.684375)"/>
       <use xlink:href="#DejaVuSans-30" transform="translate(63.623047 0.684375)"/>
       <use xlink:href="#DejaVuSans-2212" transform="translate(128.203125 38.965625) scale(0.7)"/>
       <use xlink:href="#DejaVuSans-31" transform="translate(186.855469 38.965625) scale(0.7)"/>
      </g>
     </g>
    </g>
    <g id="ytick_3">
     <g id="line2d_16">
      <path d="M 47.595938 32.827814 
L 189.328221 32.827814 
" clip-path="url(#p465e86d6f0)" style="fill: none; stroke-dasharray: 1.85,0.8; stroke-dashoffset: 0; stroke: #000000; stroke-opacity: 0.5; stroke-width: 0.5"/>
     </g>
     <g id="line2d_17">
      <g>
       <use xlink:href="#m1389d33c3c" x="47.595938" y="32.827814" style="stroke: #000000; stroke-width: 0.5"/>
      </g>
     </g>
     <g id="line2d_18">
      <g>
       <use xlink:href="#m2c33fb5c5e" x="189.328221" y="32.827814" style="stroke: #000000; stroke-width: 0.5"/>
      </g>
     </g>
     <g id="text_7">
      <!-- $\mathdefault{10^{1}}$ -->
      <g transform="translate(24.735938 37.006954) scale(0.11 -0.11)">
       <use xlink:href="#DejaVuSans-31" transform="translate(0 0.684375)"/>
       <use xlink:href="#DejaVuSans-30" transform="translate(63.623047 0.684375)"/>
       <use xlink:href="#DejaVuSans-31" transform="translate(128.203125 38.965625) scale(0.7)"/>
      </g>
     </g>
    </g>
    <g id="text_8">
     <!-- $t$ / s -->
     <g transform="translate(11.958281 84.861142) rotate(-90) scale(0.11 -0.11)">
      <defs>
       <path id="DejaVuSans-74" d="M 1172 4494 
L 1172 3500 
L 2356 3500 
L 2356 3053 
L 1172 3053 
L 1172 1153 
Q 1172 725 1289 603 
Q 1406 481 1766 481 
L 2356 481 
L 2356 0 
L 1766 0 
Q 1100 0 847 248 
Q 594 497 594 1153 
L 594 3053 
L 172 3053 
L 172 3500 
L 594 3500 
L 594 4494 
L 1172 4494 
z
" transform="scale(0.015625)"/>
       <path id="DejaVuSans-20" transform="scale(0.015625)"/>
       <path id="DejaVuSans-2f" d="M 1625 4666 
L 2156 4666 
L 531 -594 
L 0 -594 
L 1625 4666 
z
" transform="scale(0.015625)"/>
       <path id="DejaVuSans-73" d="M 2834 3397 
L 2834 2853 
Q 2591 2978 2328 3040 
Q 2066 3103 1784 3103 
Q 1356 3103 1142 2972 
Q 928 2841 928 2578 
Q 928 2378 1081 2264 
Q 1234 2150 1697 2047 
L 1894 2003 
Q 2506 1872 2764 1633 
Q 3022 1394 3022 966 
Q 3022 478 2636 193 
Q 2250 -91 1575 -91 
Q 1294 -91 989 -36 
Q 684 19 347 128 
L 347 722 
Q 666 556 975 473 
Q 1284 391 1588 391 
Q 1994 391 2212 530 
Q 2431 669 2431 922 
Q 2431 1156 2273 1281 
Q 2116 1406 1581 1522 
L 1381 1569 
Q 847 1681 609 1914 
Q 372 2147 372 2553 
Q 372 3047 722 3315 
Q 1072 3584 1716 3584 
Q 2034 3584 2315 3537 
Q 2597 3491 2834 3397 
z
" transform="scale(0.015625)"/>
      </defs>
      <use xlink:href="#DejaVuSans-74" transform="translate(0 0.09375)"/>
      <use xlink:href="#DejaVuSans-20" transform="translate(39.208984 0.09375)"/>
      <use xlink:href="#DejaVuSans-2f" transform="translate(70.996094 0.09375)"/>
      <use xlink:href="#DejaVuSans-20" transform="translate(104.6875 0.09375)"/>
      <use xlink:href="#DejaVuSans-73" transform="translate(136.474609 0.09375)"/>
     </g>
    </g>
   </g>
   <g id="line2d_19">
    <path d="M 54.038314 138.889907 
L 75.512902 115.817791 
L 96.987491 95.007494 
L 118.462079 73.931725 
L 139.936668 52.575611 
L 161.411256 31.324656 
L 182.885844 10.042377 
" clip-path="url(#p465e86d6f0)" style="fill: none; stroke-dasharray: 5.55,2.4; stroke-dashoffset: 0; stroke: #0c5da5; stroke-width: 1.5"/>
    <defs>
     <path id="me011c23e92" d="M 0 2 
C 0.530406 2 1.03916 1.789267 1.414214 1.414214 
C 1.789267 1.03916 2 0.530406 2 0 
C 2 -0.530406 1.789267 -1.03916 1.414214 -1.414214 
C 1.03916 -1.789267 0.530406 -2 0 -2 
C -0.530406 -2 -1.03916 -1.789267 -1.414214 -1.414214 
C -1.789267 -1.03916 -2 -0.530406 -2 0 
C -2 0.530406 -1.789267 1.03916 -1.414214 1.414214 
C -1.03916 1.789267 -0.530406 2 0 2 
z
" style="stroke: #0c5da5"/>
    </defs>
    <g clip-path="url(#p465e86d6f0)">
     <use xlink:href="#me011c23e92" x="54.038314" y="138.889907" style="fill: #0c5da5; stroke: #0c5da5"/>
     <use xlink:href="#me011c23e92" x="75.512902" y="115.817791" style="fill: #0c5da5; stroke: #0c5da5"/>
     <use xlink:href="#me011c23e92" x="96.987491" y="95.007494" style="fill: #0c5da5; stroke: #0c5da5"/>
     <use xlink:href="#me011c23e92" x="118.462079" y="73.931725" style="fill: #0c5da5; stroke: #0c5da5"/>
     <use xlink:href="#me011c23e92" x="139.936668" y="52.575611" style="fill: #0c5da5; stroke: #0c5da5"/>
     <use xlink:href="#me011c23e92" x="161.411256" y="31.324656" style="fill: #0c5da5; stroke: #0c5da5"/>
     <use xlink:href="#me011c23e92" x="182.885844" y="10.042377" style="fill: #0c5da5; stroke: #0c5da5"/>
    </g>
   </g>
   <g id="line2d_20">
    <path d="M 75.512902 128.483424 
L 96.987491 123.93223 
L 118.462079 106.682593 
L 139.936668 88.634841 
L 161.411256 69.121613 
L 182.885844 48.944489 
" clip-path="url(#p465e86d6f0)" style="fill: none; stroke-dasharray: 5.55,2.4; stroke-dashoffset: 0; stroke: #00b945; stroke-width: 1.5"/>
    <defs>
     <path id="mf7588eec55" d="M 0 2 
C 0.530406 2 1.03916 1.789267 1.414214 1.414214 
C 1.789267 1.03916 2 0.530406 2 0 
C 2 -0.530406 1.789267 -1.03916 1.414214 -1.414214 
C 1.03916 -1.789267 0.530406 -2 0 -2 
C -0.530406 -2 -1.03916 -1.789267 -1.414214 -1.414214 
C -1.789267 -1.03916 -2 -0.530406 -2 0 
C -2 0.530406 -1.789267 1.03916 -1.414214 1.414214 
C -1.03916 1.789267 -0.530406 2 0 2 
z
" style="stroke: #00b945"/>
    </defs>
    <g clip-path="url(#p465e86d6f0)">
     <use xlink:href="#mf7588eec55" x="75.512902" y="128.483424" style="fill: #00b945; stroke: #00b945"/>
     <use xlink:href="#mf7588eec55" x="96.987491" y="123.93223" style="fill: #00b945; stroke: #00b945"/>
     <use xlink:href="#mf7588eec55" x="118.462079" y="106.682593" style="fill: #00b945; stroke: #00b945"/>
     <use xlink:href="#mf7588eec55" x="139.936668" y="88.634841" style="fill: #00b945; stroke: #00b945"/>
     <use xlink:href="#mf7588eec55" x="161.411256" y="69.121613" style="fill: #00b945; stroke: #00b945"/>
     <use xlink:href="#mf7588eec55" x="182.885844" y="48.944489" style="fill: #00b945; stroke: #00b945"/>
    </g>
   </g>
   <g id="line2d_21">
    <path d="M 75.512902 105.503114 
L 96.987491 105.494401 
L 118.462079 96.274955 
L 139.936668 79.152528 
L 161.411256 58.544903 
L 182.885844 37.025902 
" clip-path="url(#p465e86d6f0)" style="fill: none; stroke-dasharray: 5.55,2.4; stroke-dashoffset: 0; stroke: #ff9500; stroke-width: 1.5"/>
    <defs>
     <path id="m55d770ff20" d="M 0 2 
C 0.530406 2 1.03916 1.789267 1.414214 1.414214 
C 1.789267 1.03916 2 0.530406 2 0 
C 2 -0.530406 1.789267 -1.03916 1.414214 -1.414214 
C 1.03916 -1.789267 0.530406 -2 0 -2 
C -0.530406 -2 -1.03916 -1.789267 -1.414214 -1.414214 
C -1.789267 -1.03916 -2 -0.530406 -2 0 
C -2 0.530406 -1.789267 1.03916 -1.414214 1.414214 
C -1.03916 1.789267 -0.530406 2 0 2 
z
" style="stroke: #ff9500"/>
    </defs>
    <g clip-path="url(#p465e86d6f0)">
     <use xlink:href="#m55d770ff20" x="75.512902" y="105.503114" style="fill: #ff9500; stroke: #ff9500"/>
     <use xlink:href="#m55d770ff20" x="96.987491" y="105.494401" style="fill: #ff9500; stroke: #ff9500"/>
     <use xlink:href="#m55d770ff20" x="118.462079" y="96.274955" style="fill: #ff9500; stroke: #ff9500"/>
     <use xlink:href="#m55d770ff20" x="139.936668" y="79.152528" style="fill: #ff9500; stroke: #ff9500"/>
     <use xlink:href="#m55d770ff20" x="161.411256" y="58.544903" style="fill: #ff9500; stroke: #ff9500"/>
     <use xlink:href="#m55d770ff20" x="182.885844" y="37.025902" style="fill: #ff9500; stroke: #ff9500"/>
    </g>
   </g>
   <g id="line2d_22">
    <path d="M 75.512902 106.440034 
L 96.987491 105.174529 
L 118.462079 102.928762 
L 139.936668 88.16126 
L 161.411256 67.791977 
L 182.885844 43.23432 
" clip-path="url(#p465e86d6f0)" style="fill: none; stroke-dasharray: 5.55,2.4; stroke-dashoffset: 0; stroke: #ff2c00; stroke-width: 1.5"/>
    <defs>
     <path id="m24c74eb6fc" d="M 0 2 
C 0.530406 2 1.03916 1.789267 1.414214 1.414214 
C 1.789267 1.03916 2 0.530406 2 0 
C 2 -0.530406 1.789267 -1.03916 1.414214 -1.414214 
C 1.03916 -1.789267 0.530406 -2 0 -2 
C -0.530406 -2 -1.03916 -1.789267 -1.414214 -1.414214 
C -1.789267 -1.03916 -2 -0.530406 -2 0 
C -2 0.530406 -1.789267 1.03916 -1.414214 1.414214 
C -1.03916 1.789267 -0.530406 2 0 2 
z
" style="stroke: #ff2c00"/>
    </defs>
    <g clip-path="url(#p465e86d6f0)">
     <use xlink:href="#m24c74eb6fc" x="75.512902" y="106.440034" style="fill: #ff2c00; stroke: #ff2c00"/>
     <use xlink:href="#m24c74eb6fc" x="96.987491" y="105.174529" style="fill: #ff2c00; stroke: #ff2c00"/>
     <use xlink:href="#m24c74eb6fc" x="118.462079" y="102.928762" style="fill: #ff2c00; stroke: #ff2c00"/>
     <use xlink:href="#m24c74eb6fc" x="139.936668" y="88.16126" style="fill: #ff2c00; stroke: #ff2c00"/>
     <use xlink:href="#m24c74eb6fc" x="161.411256" y="67.791977" style="fill: #ff2c00; stroke: #ff2c00"/>
     <use xlink:href="#m24c74eb6fc" x="182.885844" y="43.23432" style="fill: #ff2c00; stroke: #ff2c00"/>
    </g>
   </g>
   <g id="patch_3">
    <path d="M 47.595938 145.332283 
L 47.595938 3.6 
" style="fill: none; stroke: #000000; stroke-width: 0.5; stroke-linejoin: miter; stroke-linecap: square"/>
   </g>
   <g id="patch_4">
    <path d="M 189.328221 145.332283 
L 189.328221 3.6 
" style="fill: none; stroke: #000000; stroke-width: 0.5; stroke-linejoin: miter; stroke-linecap: square"/>
   </g>
   <g id="patch_5">
    <path d="M 47.595938 145.332283 
L 189.328221 145.332283 
" style="fill: none; stroke: #000000; stroke-width: 0.5; stroke-linejoin: miter; stroke-linecap: square"/>
   </g>
   <g id="patch_6">
    <path d="M 47.595938 3.6 
L 189.328221 3.6 
" style="fill: none; stroke: #000000; stroke-width: 0.5; stroke-linejoin: miter; stroke-linecap: square"/>
   </g>
  </g>
 </g>
 <defs>
  <clipPath id="p465e86d6f0">
   <rect x="47.595938" y="3.6" width="141.732283" height="141.732283"/>
  </clipPath>
 </defs>
</svg>
